<svg width="512px" height="571px" viewBox="466 204 512 571" version="1.1" xmlns="http://www.w3.org/2000/svg" xmlns:xlink="http://www.w3.org/1999/xlink">
    <!-- Generator: Sketch 3.8.3 (29802) - http://www.bohemiancoding.com/sketch -->
    <desc>Created with Sketch.</desc>
    <defs>
        <filter x="-50%" y="-50%" width="200%" height="200%" filterUnits="objectBoundingBox" id="filter-1">
            <feOffset dx="0" dy="6" in="SourceAlpha" result="shadowOffsetOuter1"></feOffset>
            <feGaussianBlur stdDeviation="10" in="shadowOffsetOuter1" result="shadowBlurOuter1"></feGaussianBlur>
            <feColorMatrix values="0 0 0 0 0   0 0 0 0 0   0 0 0 0 0  0 0 0 0.2 0" type="matrix" in="shadowBlurOuter1" result="shadowMatrixOuter1"></feColorMatrix>
            <feMerge>
                <feMergeNode in="shadowMatrixOuter1"></feMergeNode>
                <feMergeNode in="SourceGraphic"></feMergeNode>
            </feMerge>
        </filter>
    </defs>
    <g id="Group-2" stroke="none" stroke-width="1" fill="none" fill-rule="evenodd" transform="translate(588.000000, 218.000000)">
        <g id="iphone6" filter="url(#filter-1)">
            <path d="M0.00370776879,145.790965 L0.00370776701,130.322314 C0.00125018966,130.280927 0,130.239131 0,130.196979 C0,129.253333 0.626547191,128.488357 1.3994324,128.488357 L2.79886481,128.488357 L2.79886488,147.624921 L1.3994324,147.624921 C0.626547191,147.624921 0,146.859945 0,145.9163 C0,145.874147 0.00125019026,145.832352 0.00370776879,145.790965 Z" id="volume-up" fill="#CACACA"></path>
            <path d="M1.28940047,102.512103 C1.28877615,102.515535 1.28844642,102.517306 1.28844642,102.517306 L2.79886481,102.517306 L2.79886481,77.2297042 L1.28844642,77.2297042 C1.28844642,77.2297042 1.28885794,77.2314668 1.28963648,77.2348856 C0.568070495,77.3032576 0,78.0397946 0,78.938326 C0,78.9686161 0.000645561532,78.9987221 0.00192080256,79.0286247 C0.000649608449,79.0280306 0,79.0277216 0,79.0277216 L0,100.756409 C0,100.756409 0.00021903525,100.756282 0.000651733056,100.756035 C0.000218285317,100.77352 0,100.791071 0,100.808685 C0,101.707118 0.567946628,102.443593 1.28940047,102.512103 Z" id="switch" fill="#CACACA"></path>
            <path d="M0.00370776879,190.89858 L0.00370776701,175.429929 C0.00125018966,175.388542 0,175.346746 0,175.304594 C0,174.360948 0.626547191,173.595972 1.3994324,173.595972 L2.79886481,173.595972 L2.79886488,192.732536 L1.3994324,192.732536 C0.626547191,192.732536 0,191.96756 0,191.023914 C0,190.981762 0.00125019026,190.939967 0.00370776879,190.89858 Z" id="volume-down" fill="#CACACA"></path>
            <path d="M3,38.9952886 C3,19.1156396 19.1240329,3 36.9900407,3 L3,3 C21.7721811,3 53.1128571,3 72.9951191,3 L228.015943,3 C247.900998,3 264.021021,19.1101084 264.021021,38.9952886 L264.021021,494.468231 C264.021021,514.34788 247.902246,530.463519 228.018315,530.463519 L39.002706,530.463519 C19.1189605,530.463519 3,514.353411 3,494.468231 L3,38.9952886 Z" id="Rectangle-426" fill="#FFFFFF"></path>
            <path d="M133.303303,518.755551 C143.411939,518.755551 151.606607,510.751398 151.606607,500.877775 C151.606607,491.004152 143.411939,483 133.303303,483 C123.194668,483 115,491.004152 115,500.877775 C115,510.751398 123.194668,518.755551 133.303303,518.755551 Z" id="homebutton" fill="#EBEBEB"></path>
            <path d="M133.5,27 C135.432997,27 137,25.4329967 137,23.5 C137,21.5670033 135.432997,20 133.5,20 C131.567003,20 130,21.5670033 130,23.5 C130,25.4329967 131.567003,27 133.5,27 Z" id="lense" fill="#EAEAEA"></path>
            <path d="M85.5,43 C87.4329967,43 89,41.4329967 89,39.5 C89,37.5670033 87.4329967,36 85.5,36 C83.5670033,36 82,37.5670033 82,39.5 C82,41.4329967 83.5670033,43 85.5,43 Z" id="lense-copy" fill="#EAEAEA"></path>
            <path d="M220.018835,0.341737194 L220.018835,0.282554252 L181.040106,0.282554252 L181.040106,0.351759349 C180.970278,0.345134384 180.899181,0.341724355 180.827064,0.341724355 C179.860958,0.341724355 179.077774,0.953705138 179.077774,1.70862177 L179.077774,3.07551919 L221.760462,3.07551919 L221.760462,1.70862177 C221.760462,0.955702175 220.981416,0.344963192 220.018835,0.341737194 Z" id="power-button" fill="#CACACA"></path>
            <rect id="Rectangle-427" fill="#EAEAEA" x="104" y="37" width="59.6846847" height="4.66094421" rx="2.3304721"></rect>
        </g>
    </g>
    <g id="Group-20" stroke="none" stroke-width="1" fill="none" fill-rule="evenodd" transform="translate(466.000000, 321.000000)">
        <path d="M125,4.5 L5,4.5" id="Line-Copy-6" stroke="#FCCECB" stroke-linecap="square"></path>
        <circle id="Oval-287" fill="#FCCECB" cx="4.5" cy="4.5" r="4.5"></circle>
    </g>
    <g id="Group-17" stroke="none" stroke-width="1" fill="none" fill-rule="evenodd" transform="translate(853.000000, 321.000000)">
        <path d="M120,4.5 L0,4.5" id="Line-Copy-8" stroke-opacity="0.3" stroke="#F55D54" stroke-linecap="square"></path>
        <circle id="Oval-287-Copy-2" fill="#FCCECB" cx="120.5" cy="4.5" r="4.5"></circle>
    </g>
    <g id="Group-18" stroke="none" stroke-width="1" fill="none" fill-rule="evenodd" transform="translate(466.000000, 612.000000)">
        <path d="M125,4.5 L5,4.5" id="Line-Copy-7" stroke="#FCCECB" stroke-linecap="square"></path>
        <circle id="Oval-287-Copy" fill="#FCCECB" cx="4.5" cy="4.5" r="4.5"></circle>
    </g>
    <g id="Group-19" stroke="none" stroke-width="1" fill="none" fill-rule="evenodd" transform="translate(853.000000, 612.000000)">
        <path d="M120,4.5 L0,4.5" id="Line-Copy-9" stroke-opacity="0.3" stroke="#F55D54" stroke-linecap="square"></path>
        <circle id="Oval-287-Copy-3" fill="#FCCECB" cx="120.5" cy="4.5" r="4.5"></circle>
    </g>
</svg>